<?xml version="1.0" standalone="no"?>
<!DOCTYPE svg PUBLIC "-//W3C//DTD SVG 20010904//EN"
 "http://www.w3.org/TR/2001/REC-SVG-20010904/DTD/svg10.dtd">
<svg version="1.0" xmlns="http://www.w3.org/2000/svg"
 width="350.000000pt" height="350.000000pt" viewBox="0 0 350.000000 350.000000"
 preserveAspectRatio="xMidYMid meet">
<metadata>
Created by potrace 1.11, written by Peter Selinger 2001-2013
</metadata>
<g transform="translate(0.000000,350.000000) scale(0.100000,-0.100000)"
fill="#000000" stroke="none">
<path d="M0 1750 l0 -1750 1750 0 1750 0 0 1750 0 1750 -1750 0 -1750 0 0
-1750z m2718 1374 c190 -63 328 -199 400 -392 30 -82 41 -239 23 -334 -7 -35
-32 -104 -57 -155 -73 -152 -196 -260 -366 -321 -64 -23 -88 -26 -198 -26
-110 0 -134 3 -198 26 -170 61 -293 169 -366 321 -56 115 -70 187 -64 320 6
114 31 196 89 293 89 148 257 262 432 294 84 15 218 4 305 -26z m-1628 -1566
c25 -6 83 -28 130 -50 162 -77 293 -242 336 -423 21 -92 14 -255 -15 -338 -70
-200 -220 -348 -416 -410 -94 -30 -282 -31 -365 -3 -222 75 -382 242 -436 456
-22 84 -21 226 1 309 48 184 169 330 342 413 131 64 280 80 423 46z"/>
</g>
</svg>
